<svg width="489" height="412" viewBox="0 0 489 412" fill="none" xmlns="http://www.w3.org/2000/svg">
<path opacity="0.8" d="M475.439 0.616148C474.872 0.211149 474.245 0 473.609 0C472.973 0 472.346 0.211149 471.779 0.616148C471.013 1.22134 470.826 2.12343 471.209 2.8999L414.551 48.7234V106.582L400.745 117.738V180.679L353.476 218.932L346.141 212.971L382.604 183.476V148.969L382.457 148.855L340.998 115.318V103.625L364.446 84.6583C364.982 84.9554 365.557 85.0897 366.133 85.0523C366.709 85.0149 367.273 84.8066 367.787 84.4413C368.798 83.6306 368.798 82.306 367.787 81.4838C367.22 81.0788 366.593 80.8677 365.957 80.8677C365.321 80.8677 364.694 81.0788 364.128 81.4838C363.215 82.2261 363.133 83.3679 363.867 84.1901L340.42 103.157V115.786L340.567 115.911L382.025 149.437V182.997L354.421 205.32V190.91L367.054 180.701C367.59 180.999 368.165 181.133 368.741 181.096C369.317 181.058 369.881 180.85 370.395 180.485C371.406 179.674 371.406 178.349 370.395 177.527C369.828 177.122 369.201 176.911 368.565 176.911C367.929 176.911 367.302 177.122 366.736 177.527C365.823 178.269 365.741 179.411 366.475 180.233L353.843 190.476V205.789L345.554 212.503L335.701 204.51V179.491L354.283 164.464V147.153L354.136 147.039L315.017 115.398C315.75 114.575 315.669 113.422 314.756 112.691C314.189 112.286 313.562 112.075 312.926 112.075C312.29 112.075 311.663 112.286 311.097 112.691C310.086 113.513 310.086 114.838 311.097 115.649C311.611 116.014 312.175 116.222 312.751 116.26C313.327 116.297 313.902 116.163 314.438 115.866L353.704 147.633V163.996L335.701 178.555V161.301L335.554 161.187L311.618 141.775C312.352 140.964 312.27 139.811 311.357 139.08C310.791 138.675 310.164 138.464 309.528 138.464C308.892 138.464 308.265 138.675 307.698 139.08C306.688 139.891 306.688 141.215 307.698 142.038C308.212 142.403 308.776 142.611 309.352 142.649C309.928 142.686 310.503 142.552 311.04 142.255L335.122 161.724V203.973L328.195 198.378L316.785 207.604L306.435 199.326V179.057L306.288 178.943L278.986 156.859V137.687C279.525 137.653 280.051 137.45 280.526 137.093C281.537 136.282 281.537 134.958 280.526 134.136C279.96 133.731 279.333 133.52 278.697 133.52C278.061 133.52 277.434 133.731 276.867 134.136C275.857 134.958 275.857 136.282 276.867 137.093C277.342 137.45 277.869 137.653 278.408 137.687V157.293L278.554 157.407L305.856 179.491V198.903L261.415 162.957V124.807L285.514 105.315H307.625H307.698L345.644 74.6212C346.18 74.9183 346.755 75.0526 347.331 75.0152C347.907 74.9778 348.471 74.7696 348.985 74.4042C349.996 73.5935 349.996 72.2689 348.985 71.4467C348.418 71.047 347.791 70.8389 347.156 70.8389C346.52 70.8389 345.894 71.047 345.326 71.4467C344.413 72.189 344.332 73.3308 345.065 74.153L307.47 104.561H286.517L356.231 48.1068C356.766 48.4057 357.341 48.5419 357.917 48.5065C358.493 48.4711 359.057 48.2648 359.572 47.9013C359.794 47.7976 359.988 47.5984 360.125 47.332C360.262 47.0655 360.336 46.7453 360.336 46.4168C360.336 46.0883 360.262 45.7681 360.125 45.5017C359.988 45.2352 359.794 45.036 359.572 44.9324C359.004 44.5327 358.378 44.3245 357.742 44.3245C357.107 44.3245 356.48 44.5327 355.913 44.9324C355 45.6746 354.918 46.8165 355.652 47.6386L260.796 124.338V163.379L260.942 163.505L316.215 208.152L305.106 217.139L210.821 140.907V95.4147L210.674 95.3005L178.629 69.3685C179.362 68.5578 179.281 67.4045 178.368 66.6737C177.801 66.2687 177.174 66.0575 176.538 66.0575C175.902 66.0575 175.275 66.2687 174.709 66.6737C173.698 67.4844 173.698 68.809 174.709 69.6312C175.224 69.9947 175.788 70.201 176.364 70.2364C176.94 70.2718 177.514 70.1356 178.05 69.8367L210.266 95.8829V141.375L210.413 141.489L304.512 217.607L293.917 226.16L200.715 150.796H145.133L110.398 122.694V79.4856C110.75 79.4072 111.09 79.2409 111.4 78.9946C112.411 78.1724 112.411 76.8478 111.4 76.0371C110.834 75.6321 110.207 75.4209 109.571 75.4209C108.935 75.4209 108.308 75.6321 107.741 76.0371C106.731 76.8478 106.731 78.1724 107.741 78.9946C108.381 79.4591 109.101 79.6647 109.819 79.5883V123.105L109.966 123.219L145.011 151.549H200.593L279.271 215.198H263.404L236.55 193.502H215.865H215.8L187.113 216.739C186.577 216.442 186.001 216.308 185.425 216.345C184.849 216.382 184.286 216.591 183.771 216.956C182.761 217.767 182.761 219.091 183.771 219.914C184.34 220.315 184.968 220.524 185.605 220.524C186.242 220.524 186.87 220.315 187.439 219.914C188.343 219.171 188.425 218.029 187.691 217.207L216.028 194.301H236.403L263.257 215.997H280.241L293.338 226.582L265.107 249.42L257.071 243.002V225.931L236.697 209.431C237.422 208.62 237.34 207.467 236.436 206.736C235.867 206.335 235.239 206.126 234.602 206.126C233.965 206.126 233.337 206.335 232.768 206.736C231.758 207.547 231.758 208.872 232.768 209.694C233.283 210.057 233.847 210.264 234.423 210.299C234.999 210.334 235.574 210.198 236.11 209.899L256.484 226.399V242.511L234.716 224.915H224.439L224.374 224.972L212.1 234.906C211.565 234.607 210.99 234.471 210.414 234.507C209.838 234.542 209.274 234.748 208.759 235.112C207.748 235.934 207.748 237.259 208.759 238.069C209.325 238.474 209.952 238.686 210.588 238.686C211.224 238.686 211.851 238.474 212.418 238.069C213.331 237.339 213.412 236.185 212.679 235.375L224.602 225.726H234.586L264.52 249.945L259.084 254.341L276.435 268.375L268.285 274.952H256.02L247.226 267.838C247.927 267.016 247.837 265.897 246.933 265.166C246.366 264.761 245.739 264.55 245.103 264.55C244.467 264.55 243.84 264.761 243.273 265.166C242.263 265.988 242.263 267.313 243.273 268.124C243.795 268.492 244.367 268.699 244.95 268.73C245.534 268.762 246.115 268.617 246.656 268.306L255.865 275.763H267.275L246.55 292.525L197.797 253.085H162.745L162.679 253.142L142.932 269.128C142.397 268.83 141.822 268.693 141.246 268.729C140.67 268.764 140.106 268.97 139.591 269.334C139.368 269.438 139.175 269.637 139.038 269.903C138.9 270.17 138.827 270.49 138.827 270.818C138.827 271.147 138.9 271.467 139.038 271.734C139.175 272 139.368 272.199 139.591 272.303C140.159 272.703 140.785 272.911 141.421 272.911C142.056 272.911 142.682 272.703 143.25 272.303C144.155 271.561 144.236 270.419 143.511 269.597L162.899 253.907H197.675L235.278 284.327H219.182L203.445 271.549C204.179 270.738 204.097 269.585 203.184 268.854C202.618 268.449 201.991 268.238 201.355 268.238C200.719 268.238 200.092 268.449 199.525 268.854C198.514 269.665 198.514 270.99 199.525 271.812C200.04 272.175 200.604 272.382 201.18 272.417C201.756 272.452 202.331 272.316 202.866 272.017L219.028 285.092H236.281L246.004 292.959L221.253 312.976H142.142L80.6837 263.305C81.409 262.483 81.3275 261.341 80.4229 260.599C79.8541 260.197 79.226 259.988 78.5891 259.988C77.9522 259.988 77.3242 260.197 76.7554 260.599C75.7448 261.421 75.7448 262.745 76.7554 263.556C77.2697 263.921 77.8335 264.13 78.4095 264.167C78.9855 264.204 79.5606 264.07 80.0969 263.773L141.987 313.799H220.226L210.405 321.792H151.873H151.808L122.924 345.155C122.389 344.856 121.814 344.719 121.238 344.755C120.662 344.79 120.098 344.997 119.583 345.36C118.572 346.182 118.572 347.507 119.583 348.318C120.15 348.723 120.777 348.934 121.413 348.934C122.049 348.934 122.676 348.723 123.242 348.318C124.155 347.587 124.237 346.433 123.503 345.623L152.028 322.545H210.584L210.65 322.488L277.014 268.82L284.349 274.781L214.578 331.224H163.584H163.519L101.873 381.169H16.5035L0 367.798V368.734L16.3486 381.969H102.044L102.11 381.912L140.789 350.624V369.145L115.296 389.768C114.76 389.469 114.186 389.333 113.61 389.368C113.034 389.403 112.47 389.61 111.955 389.973C110.944 390.795 110.944 392.12 111.955 392.931C112.521 393.336 113.148 393.547 113.784 393.547C114.42 393.547 115.047 393.336 115.614 392.931C116.527 392.2 116.608 391.047 115.875 390.236L141.368 369.614V350.259H141.237L163.747 332.069H214.765L214.83 332.012L284.919 275.283L293.289 282.054L157.292 392.108V412H157.871V392.588L293.974 282.523L304.316 290.893L234.121 347.667V357.818L221.676 367.878V391.218L197.545 410.744C197.009 410.445 196.434 410.309 195.858 410.344C195.282 410.38 194.718 410.586 194.203 410.949C193.89 411.176 193.642 411.547 193.502 412H198.555C198.469 411.684 198.319 411.411 198.123 411.212L222.255 391.686V368.335L234.121 358.743V396.128L241.13 401.837L228.441 412H229.598L241.643 402.26L253.681 412H254.838L234.635 395.66V348.123L304.805 291.349L314.242 298.954L264.569 339.137C264.033 338.84 263.458 338.705 262.882 338.743C262.306 338.78 261.742 338.988 261.228 339.354C260.217 340.165 260.217 341.489 261.228 342.311C261.795 342.711 262.422 342.919 263.057 342.919C263.693 342.919 264.319 342.711 264.887 342.311C265.8 341.569 265.881 340.427 265.148 339.605L314.862 299.422L323.949 306.776L264.528 354.838H248.343C248.203 354.375 247.952 353.995 247.634 353.764C247.066 353.365 246.439 353.156 245.804 353.156C245.169 353.156 244.542 353.365 243.974 353.764C243.752 353.868 243.558 354.067 243.421 354.334C243.284 354.6 243.21 354.92 243.21 355.249C243.21 355.577 243.284 355.897 243.421 356.164C243.558 356.43 243.752 356.63 243.974 356.733C244.542 357.133 245.169 357.341 245.804 357.341C246.439 357.341 247.066 357.133 247.634 356.733C247.962 356.487 248.214 356.081 248.343 355.591H264.642H264.716L324.487 307.233L328.154 310.202L330.982 307.918L345.212 319.508V335.494L333.452 345.006H315H314.927L294.675 361.392C294.14 361.095 293.567 360.959 292.992 360.995C292.418 361.03 291.855 361.236 291.341 361.598C291.119 361.701 290.925 361.9 290.788 362.167C290.651 362.433 290.577 362.753 290.577 363.082C290.577 363.411 290.651 363.731 290.788 363.997C290.925 364.264 291.119 364.463 291.341 364.566C291.909 364.966 292.536 365.174 293.171 365.174C293.806 365.174 294.433 364.966 295.001 364.566C295.905 363.824 295.987 362.682 295.261 361.86L315.155 345.771H332.514L297.935 373.736C297.391 373.414 296.804 373.262 296.215 373.29C295.625 373.318 295.047 373.524 294.52 373.896C294.297 373.999 294.104 374.198 293.967 374.465C293.829 374.731 293.756 375.051 293.756 375.38C293.756 375.709 293.829 376.029 293.967 376.295C294.104 376.562 294.297 376.761 294.52 376.864C295.088 377.264 295.714 377.472 296.349 377.472C296.985 377.472 297.611 377.264 298.179 376.864C299.067 376.145 299.173 375.026 298.497 374.215L341.626 339.331V347.039L315.97 367.798V382.448L295.082 399.348C294.546 399.051 293.971 398.917 293.395 398.954C292.819 398.991 292.255 399.2 291.741 399.565C290.73 400.376 290.73 401.7 291.741 402.522C292.307 402.927 292.934 403.139 293.57 403.139C294.206 403.139 294.833 402.927 295.4 402.522C296.305 401.78 296.386 400.638 295.661 399.816L316.549 382.916V368.255L342.205 347.495V338.851L345.799 335.94V318.983L331.569 307.461L340.925 299.891L370.216 323.596V350.533L350.322 366.622C349.778 366.301 349.192 366.148 348.602 366.176C348.012 366.204 347.434 366.41 346.907 366.782C345.897 367.604 345.897 368.928 346.907 369.739C347.474 370.144 348.101 370.355 348.737 370.355C349.373 370.355 350 370.144 350.566 369.739C351.463 369.02 351.561 367.912 350.892 367.101L370.208 351.481V373.176L354.935 385.531V412H355.522V386.045L370.191 374.17V412H370.819V323.116L341.479 299.422L352.001 290.961L390.305 321.929V395.694L408.708 410.538V412H409.286V410.082L390.884 395.237V321.472L352.579 290.504L360.363 284.213L412.033 326.005V388.934L440.598 412H441.723L412.579 388.42V325.491L360.909 283.687L373.525 273.49L459.497 343.031V374.318L488.992 398.172V397.236L460.109 373.873V342.562L411.756 303.442H449.995L488.992 334.992V334.055L450.15 302.631H410.753L374.144 273.022L388.814 261.158L420.28 286.611H470.81L488.992 301.318V300.382L485.007 297.161H488.992V296.351H484.004L470.964 285.8H420.435L411.633 278.674H433.116L433.182 278.617L443.956 269.905H488.853L489 270.019V269.094H444.983L457.118 259.274C457.653 259.573 458.228 259.709 458.804 259.674C459.38 259.638 459.944 259.432 460.459 259.068C461.47 258.246 461.47 256.922 460.459 256.111C459.893 255.706 459.266 255.495 458.63 255.495C457.993 255.495 457.366 255.706 456.8 256.111C455.887 256.842 455.806 257.995 456.539 258.806L432.986 277.864H410.655L389.417 260.736L397.265 254.387L392.212 250.299H406.882L426.067 265.817C425.333 266.639 425.415 267.781 426.328 268.523C426.895 268.923 427.522 269.131 428.157 269.131C428.793 269.131 429.419 268.923 429.987 268.523C430.997 267.701 430.997 266.376 429.987 265.566C429.473 265.2 428.909 264.992 428.333 264.955C427.757 264.917 427.182 265.052 426.645 265.349L407.037 249.488H391.193L380.444 240.719L387.045 235.375H398.757L409.058 227.05H416.743L434.103 241.084C433.288 241.906 433.385 243.082 434.314 243.836C434.882 244.236 435.509 244.444 436.144 244.444C436.779 244.444 437.406 244.236 437.974 243.836C438.984 243.014 438.984 241.689 437.974 240.878C437.472 240.524 436.923 240.319 436.362 240.275C435.801 240.232 435.24 240.352 434.714 240.627L416.923 226.228H408.928L398.626 234.564H388.048L409.164 217.436H420.574L444.339 236.665H488.992V235.854H444.477L420.72 216.739H409.009L408.936 216.796L379.865 240.319L372.229 234.153L405.089 207.57H428.267L447.379 223.031H488.992V222.22H447.542L429.424 207.57H488.992V206.759H404.934L404.869 206.816L371.634 233.639L362.97 226.628L408.789 189.574H488.992V188.763H430.557L488.992 141.489V140.553L429.4 188.752H409.221L452.668 153.605V145.863L473.45 129.043C473.983 129.333 474.554 129.463 475.126 129.424C475.697 129.384 476.257 129.177 476.767 128.815C476.99 128.711 477.183 128.512 477.32 128.245C477.457 127.979 477.531 127.659 477.531 127.33C477.531 127.002 477.457 126.681 477.32 126.415C477.183 126.149 476.99 125.949 476.767 125.846C476.199 125.446 475.573 125.238 474.937 125.238C474.302 125.238 473.675 125.446 473.108 125.846C472.195 126.588 472.113 127.73 472.847 128.552L461.527 137.687V116.517L488.992 94.33V93.4165L460.973 116.083V138.247L452.089 145.44V153.182L408.292 188.58L408.439 188.934L362.408 226.16L354.038 219.4L401.307 181.147V118.207L488.992 47.2961V46.3597L415.13 106.114V49.1916L471.657 3.51652L471.779 3.6307C472.347 4.03041 472.974 4.23857 473.609 4.23857C474.244 4.23857 474.871 4.03041 475.439 3.6307C476.449 2.75146 476.449 1.42688 475.439 0.616148ZM396.083 254.341L328.154 309.231L260.241 254.295L328.154 199.348L396.083 254.341Z" fill="#2AA9DF" fill-opacity="0.43"/>
</svg>
