<svg width="836" height="908" viewBox="0 0 836 908" fill="none" xmlns="http://www.w3.org/2000/svg">
<g opacity="0.7">
<path opacity="0.0526316" d="M1110.53 733.145C1085.13 759.374 1003.93 803.265 882.371 768.998C730.429 726.163 671.664 612.619 536.053 553.746C435.962 510.292 167.013 445.067 12.3629 517.142" stroke="url(#paint0_linear_23_33104)" stroke-width="2.81501"/>
<path opacity="0.105263" d="M1135.59 678.159C1113.86 706.305 1039.01 756.542 913.508 732.321C756.628 702.045 682.89 593.891 540.092 546.339C434.696 511.243 158.434 468.189 14.34 552.414" stroke="url(#paint1_linear_23_33104)" stroke-width="2.81501"/>
<path opacity="0.157895" d="M1154.52 622.431C1136.7 652.186 1069.03 708.218 940.953 694.311C780.854 676.926 692.951 575.344 544.529 539.636C434.983 513.281 154.435 492.872 22.476 588.323" stroke="url(#paint2_linear_23_33104)" stroke-width="2.81501"/>
<path opacity="0.210526" d="M1167.26 566.46C1153.54 597.497 1093.79 658.711 964.543 655.268C802.979 650.965 701.875 557.07 549.456 533.596C436.96 516.271 155.199 518.73 36.8209 624.361" stroke="url(#paint3_linear_23_33104)" stroke-width="2.81501"/>
<path opacity="0.263158" d="M1173.81 510.753C1164.34 542.734 1113.17 608.459 984.162 615.519C822.904 624.344 709.705 539.164 554.959 528.182C440.745 520.076 160.86 545.376 57.3588 660.031" stroke="url(#paint4_linear_23_33104)" stroke-width="2.81501"/>
<path opacity="0.315789" d="M1174.23 455.812C1169.12 488.384 1127.08 557.9 999.734 575.386C840.548 597.243 716.495 521.711 561.118 523.341C446.438 524.544 171.494 572.408 84.004 694.83" stroke="url(#paint5_linear_23_33104)" stroke-width="2.81501"/>
<path opacity="0.368421" d="M1168.66 402.126C1167.98 434.934 1135.53 507.479 1011.23 535.198C855.863 569.847 722.316 504.792 568.009 519.016C454.119 529.515 187.129 599.417 116.609 728.265" stroke="url(#paint6_linear_23_33104)" stroke-width="2.81501"/>
<path opacity="0.421053" d="M1157.31 350.177C1161.05 382.861 1138.55 457.641 1018.67 495.29C868.819 542.352 727.24 488.486 575.695 515.148C463.843 534.827 207.731 626.003 154.954 759.865" stroke="url(#paint7_linear_23_33104)" stroke-width="2.81501"/>
<path opacity="0.473684" d="M1140.44 300.421C1148.56 332.623 1136.26 408.818 1022.11 455.985C879.418 514.944 731.359 472.856 584.235 511.665C475.647 540.308 233.22 651.759 198.764 789.169" stroke="url(#paint8_linear_23_33104)" stroke-width="2.81501"/>
<path opacity="0.526316" d="M1118.38 253.296C1130.79 284.663 1128.82 361.438 1021.65 417.606C887.68 487.816 734.762 457.969 593.672 508.498C489.537 545.793 263.451 676.297 247.693 815.748" stroke="url(#paint9_linear_23_33104)" stroke-width="2.81501"/>
<path opacity="0.578947" d="M1091.51 209.21C1108.08 239.398 1116.46 315.913 1017.44 380.466C893.662 461.158 737.561 443.877 604.051 505.574C505.51 551.111 298.242 699.239 301.355 839.205" stroke="url(#paint10_linear_23_33104)" stroke-width="2.81501"/>
<path opacity="0.631579" d="M1060.26 168.529C1080.8 197.208 1099.45 272.623 1009.66 344.855C897.434 435.145 739.861 430.621 615.393 502.809C523.526 556.089 337.346 720.217 359.296 859.164" stroke="url(#paint11_linear_23_33104)" stroke-width="2.81501"/>
<path opacity="0.684211" d="M1025.12 131.602C1049.41 158.457 1078.11 231.947 998.552 311.065C899.1 409.963 741.781 418.245 627.719 500.134C543.532 560.574 380.481 738.905 421.028 875.31" stroke="url(#paint12_linear_23_33104)" stroke-width="2.81501"/>
<path opacity="0.736842" d="M986.609 98.7129C1014.39 123.45 1052.83 194.21 984.364 279.348C898.779 385.771 743.437 406.768 641.031 497.461C565.447 564.398 427.311 754.977 486.01 887.346" stroke="url(#paint13_linear_23_33104)" stroke-width="2.81501"/>
<path opacity="0.789474" d="M945.301 70.1199C976.261 92.4684 1024.02 159.722 967.401 249.948C896.62 362.73 744.958 396.212 655.329 494.714C589.176 567.416 477.468 768.155 553.676 895.038" stroke="url(#paint14_linear_23_33104)" stroke-width="2.81501"/>
<path opacity="0.842105" d="M901.782 46.0228C935.582 65.7376 992.144 128.748 947.984 223.073C892.783 340.978 746.462 386.579 670.592 491.811C614.595 569.481 530.54 778.181 623.422 898.188" stroke="url(#paint15_linear_23_33104)" stroke-width="2.81501"/>
<path opacity="0.894737" d="M856.673 26.5784C892.944 43.4436 957.683 101.521 926.471 198.911C887.455 320.648 748.078 377.867 686.799 488.677C641.571 570.463 586.089 784.839 694.627 896.654" stroke="url(#paint16_linear_23_33104)" stroke-width="2.81501"/>
<path opacity="0.947368" d="M810.605 11.8874C848.949 25.7182 921.158 78.2266 903.235 177.614C880.831 301.849 749.925 370.06 703.909 485.234C669.945 570.24 643.644 787.942 766.65 890.34" stroke="url(#paint17_linear_23_33104)" stroke-width="2.81501"/>
<path d="M764.232 2C804.23 12.6447 883.115 59.0085 878.679 159.306C873.133 284.677 752.132 363.133 721.882 481.408C699.555 568.704 702.724 787.346 838.849 879.206" stroke="url(#paint18_linear_23_33104)" stroke-width="2.81501"/>
</g>
<defs>
<linearGradient id="paint0_linear_23_33104" x1="1100.97" y1="755.977" x2="89.6653" y2="332.525" gradientUnits="userSpaceOnUse">
<stop stop-color="#464667"/>
<stop offset="1" stop-color="#464667" stop-opacity="0"/>
</linearGradient>
<linearGradient id="paint1_linear_23_33104" x1="1129.16" y1="701.641" x2="54.1247" y2="407.17" gradientUnits="userSpaceOnUse">
<stop stop-color="#464667"/>
<stop offset="1" stop-color="#464667" stop-opacity="0"/>
</linearGradient>
<linearGradient id="paint2_linear_23_33104" x1="1151.29" y1="646.307" x2="35.0994" y2="495.123" gradientUnits="userSpaceOnUse">
<stop stop-color="#464667"/>
<stop offset="1" stop-color="#464667" stop-opacity="0"/>
</linearGradient>
<linearGradient id="paint3_linear_23_33104" x1="1167.26" y1="590.466" x2="36.8208" y2="590.466" gradientUnits="userSpaceOnUse">
<stop stop-color="#464667"/>
<stop offset="1" stop-color="#464667" stop-opacity="0"/>
</linearGradient>
<linearGradient id="paint4_linear_23_33104" x1="1177.04" y1="534.629" x2="60.8507" y2="685.812" gradientUnits="userSpaceOnUse">
<stop stop-color="#464667"/>
<stop offset="1" stop-color="#464667" stop-opacity="0"/>
</linearGradient>
<linearGradient id="paint5_linear_23_33104" x1="1180.66" y1="479.294" x2="105.626" y2="773.765" gradientUnits="userSpaceOnUse">
<stop stop-color="#464667"/>
<stop offset="1" stop-color="#464667" stop-opacity="0"/>
</linearGradient>
<linearGradient id="paint6_linear_23_33104" x1="1178.22" y1="424.958" x2="166.916" y2="848.41" gradientUnits="userSpaceOnUse">
<stop stop-color="#464667"/>
<stop offset="1" stop-color="#464667" stop-opacity="0"/>
</linearGradient>
<linearGradient id="paint7_linear_23_33104" x1="1169.9" y1="372.109" x2="238.944" y2="906.25" gradientUnits="userSpaceOnUse">
<stop stop-color="#464667"/>
<stop offset="1" stop-color="#464667" stop-opacity="0"/>
</linearGradient>
<linearGradient id="paint8_linear_23_33104" x1="1155.91" y1="321.212" x2="315.706" y2="946.344" gradientUnits="userSpaceOnUse">
<stop stop-color="#464667"/>
<stop offset="1" stop-color="#464667" stop-opacity="0"/>
</linearGradient>
<linearGradient id="paint9_linear_23_33104" x1="1136.56" y1="272.718" x2="391.982" y2="969.857" gradientUnits="userSpaceOnUse">
<stop stop-color="#464667"/>
<stop offset="1" stop-color="#464667" stop-opacity="0"/>
</linearGradient>
<linearGradient id="paint10_linear_23_33104" x1="1112.21" y1="227.051" x2="463.908" y2="979.296" gradientUnits="userSpaceOnUse">
<stop stop-color="#464667"/>
<stop offset="1" stop-color="#464667" stop-opacity="0"/>
</linearGradient>
<linearGradient id="paint11_linear_23_33104" x1="1083.25" y1="184.593" x2="529.052" y2="977.773" gradientUnits="userSpaceOnUse">
<stop stop-color="#464667"/>
<stop offset="1" stop-color="#464667" stop-opacity="0"/>
</linearGradient>
<linearGradient id="paint12_linear_23_33104" x1="1050.15" y1="145.713" x2="586.281" y2="968.478" gradientUnits="userSpaceOnUse">
<stop stop-color="#464667"/>
<stop offset="1" stop-color="#464667" stop-opacity="0"/>
</linearGradient>
<linearGradient id="paint13_linear_23_33104" x1="1013.4" y1="110.716" x2="635.461" y2="954.303" gradientUnits="userSpaceOnUse">
<stop stop-color="#464667"/>
<stop offset="1" stop-color="#464667" stop-opacity="0"/>
</linearGradient>
<linearGradient id="paint14_linear_23_33104" x1="973.564" y1="79.8844" x2="677.192" y2="937.712" gradientUnits="userSpaceOnUse">
<stop stop-color="#464667"/>
<stop offset="1" stop-color="#464667" stop-opacity="0"/>
</linearGradient>
<linearGradient id="paint15_linear_23_33104" x1="931.205" y1="53.4413" x2="712.55" y2="920.66" gradientUnits="userSpaceOnUse">
<stop stop-color="#464667"/>
<stop offset="1" stop-color="#464667" stop-opacity="0"/>
</linearGradient>
<linearGradient id="paint16_linear_23_33104" x1="886.934" y1="31.5697" x2="742.932" y2="904.621" gradientUnits="userSpaceOnUse">
<stop stop-color="#464667"/>
<stop offset="1" stop-color="#464667" stop-opacity="0"/>
</linearGradient>
<linearGradient id="paint17_linear_23_33104" x1="841.373" y1="14.3969" x2="769.91" y2="890.606" gradientUnits="userSpaceOnUse">
<stop stop-color="#464667"/>
<stop offset="1" stop-color="#464667" stop-opacity="0"/>
</linearGradient>
<linearGradient id="paint18_linear_23_33104" x1="795.17" y1="2" x2="795.17" y2="879.206" gradientUnits="userSpaceOnUse">
<stop stop-color="#464667"/>
<stop offset="1" stop-color="#464667" stop-opacity="0"/>
</linearGradient>
</defs>
</svg>
