<svg width="233" height="793" viewBox="0 0 233 793" fill="none" xmlns="http://www.w3.org/2000/svg">
<g opacity="0.62">
<path opacity="0.0344828" d="M178.36 690.707C174.24 687.034 171.642 681.463 170.591 674.018C169.538 666.563 170.054 657.324 172.092 646.495C176.166 624.839 186.266 597.125 201.547 565.216C232.1 501.42 283.224 421.141 347.69 339.529C412.156 257.917 477.703 190.493 531.542 147.453C558.47 125.926 582.409 110.548 601.778 102.525C611.464 98.5126 619.939 96.3683 627.034 96.1749C634.118 95.9818 639.734 97.7324 643.854 101.405C647.974 105.077 650.572 110.649 651.623 118.093C652.676 125.549 652.16 134.787 650.122 145.616C646.048 167.272 635.948 194.986 620.667 226.895C590.114 290.692 538.99 370.971 474.524 452.583C410.058 534.194 344.511 601.618 290.672 644.658C263.744 666.185 239.805 681.564 220.436 689.587C210.751 693.599 202.275 695.743 195.18 695.936C188.097 696.13 182.48 694.379 178.36 690.707Z" stroke="#464667" stroke-width="2.8023"/>
<path opacity="0.0689655" d="M152.175 668.033C148.368 663.988 146.236 658.192 145.8 650.679C145.363 643.154 146.635 633.999 149.553 623.401C155.389 602.206 167.723 575.535 185.563 545.163C221.233 484.439 278.749 409.2 349.664 333.868C420.58 258.536 491.408 197.439 548.572 159.548C577.163 140.596 602.271 127.494 622.223 121.295C632.2 118.195 640.818 116.844 647.902 117.308C654.975 117.772 660.431 120.036 664.238 124.081C668.046 128.126 670.178 133.922 670.614 141.435C671.051 148.959 669.779 158.115 666.861 168.713C661.025 189.907 648.691 216.579 630.85 246.951C595.181 307.674 537.665 382.913 466.75 458.245C395.834 533.577 325.006 594.675 267.842 632.565C239.251 651.517 214.143 664.619 194.191 670.818C184.214 673.918 175.596 675.27 168.512 674.805C161.439 674.342 155.983 672.078 152.175 668.033Z" stroke="#464667" stroke-width="2.8023"/>
<path opacity="0.103448" d="M127.938 643.287C124.472 638.899 122.825 632.923 123.007 625.399C123.189 617.862 125.207 608.86 128.983 598.574C136.535 578.002 151.009 552.575 171.273 523.971C211.788 466.783 275.257 397.156 352.082 328.677C428.908 260.199 504.478 205.892 564.531 173.439C594.568 157.207 620.654 146.48 641.037 142.152C651.229 139.988 659.925 139.44 666.944 140.558C673.951 141.674 679.205 144.436 682.671 148.823C686.137 153.211 687.784 159.187 687.603 166.711C687.42 174.248 685.402 183.25 681.626 193.537C674.074 214.109 659.6 239.535 639.336 268.139C598.821 325.328 535.352 394.954 458.527 463.433C381.701 531.912 306.131 586.218 246.078 618.671C216.041 634.903 189.955 645.631 169.572 649.958C159.38 652.122 150.684 652.671 143.665 651.552C136.658 650.436 131.404 647.675 127.938 643.287Z" stroke="#464667" stroke-width="2.8023"/>
<path opacity="0.137931" d="M105.813 616.663C99.6115 607.254 101.251 592.126 110.519 572.208C119.729 552.415 136.234 528.426 158.767 501.808C203.818 448.59 272.757 385.106 354.908 324.001C437.058 262.896 516.795 215.794 579.281 189.025C610.534 175.636 637.399 167.365 658.058 164.941C678.848 162.502 692.791 166.039 698.993 175.448C705.195 184.857 703.555 199.985 694.287 219.903C685.077 239.696 668.572 263.685 646.039 290.303C600.988 343.521 532.049 407.005 449.898 468.11C367.748 529.215 288.011 576.317 225.525 603.086C194.272 616.475 167.407 624.746 146.748 627.17C125.958 629.609 112.015 626.072 105.813 616.663Z" stroke="#464667" stroke-width="2.8023"/>
<path opacity="0.172414" d="M85.9454 588.36C80.534 578.404 83.4136 563.481 94.2777 544.502C105.076 525.638 123.485 503.27 148.115 478.84C197.36 429.997 271.244 373.138 358.095 319.872C444.945 266.606 528.242 227.066 592.684 206.184C624.916 195.74 652.356 189.988 673.134 189.486C694.039 188.981 707.644 193.794 713.056 203.75C718.467 213.707 715.588 228.63 704.723 247.608C693.925 266.472 675.516 288.84 650.886 313.27C601.641 362.113 527.757 418.973 440.907 472.239C354.056 525.504 270.759 565.045 206.317 585.926C174.085 596.37 146.645 602.122 125.867 602.624C104.963 603.129 91.3568 598.316 85.9454 588.36Z" stroke="#464667" stroke-width="2.8023"/>
<path opacity="0.206897" d="M68.4646 558.595C63.8869 548.167 67.9848 533.564 80.3618 515.668C92.6656 497.877 112.839 477.3 139.379 455.244C192.443 411.146 270.709 361.345 361.599 316.323C452.488 271.301 538.711 239.624 604.619 224.788C637.585 217.368 665.391 214.179 686.129 215.603C706.991 217.035 720.156 223.087 724.733 233.515C729.311 243.943 725.213 258.546 712.836 276.442C700.532 294.233 680.359 314.811 653.818 336.867C600.755 380.964 522.489 430.766 431.599 475.787C340.71 520.809 254.487 552.487 188.578 567.322C155.613 574.742 127.807 577.931 107.069 576.507C86.2071 575.076 73.0423 569.024 68.4646 558.595Z" stroke="#464667" stroke-width="2.8023"/>
<path opacity="0.241379" d="M53.4802 527.595C49.7729 516.775 55.0578 502.605 68.8531 485.926C82.5689 469.343 104.353 450.712 132.601 431.198C189.08 392.182 271.133 349.816 365.37 313.381C459.606 276.945 548.098 253.372 614.972 244.695C648.42 240.356 676.381 239.753 696.922 243.091C717.583 246.448 730.206 253.695 733.913 264.515C737.62 275.335 732.335 289.505 718.54 306.184C704.824 322.767 683.041 341.398 654.792 360.912C598.313 399.928 516.26 442.294 422.023 478.729C327.787 515.165 239.295 538.738 172.421 547.415C138.973 551.754 111.012 552.357 90.4708 549.019C69.8106 545.662 57.1875 538.415 53.4802 527.595Z" stroke="#464667" stroke-width="2.8023"/>
<path opacity="0.275862" d="M41.0869 495.596C38.2798 484.467 44.711 470.839 59.8197 455.503C74.8432 440.254 98.0717 423.711 127.813 406.887C187.277 373.249 272.493 338.642 369.36 311.07C466.227 283.498 556.315 268.207 623.645 265.755C657.321 264.529 685.224 266.517 705.412 271.744C725.715 277 737.7 285.387 740.507 296.516C743.314 307.644 736.883 321.273 721.774 336.609C706.75 351.858 683.522 368.401 653.78 385.225C594.316 418.863 509.101 453.47 412.234 481.042C315.367 508.614 225.279 523.904 157.949 526.357C124.273 527.583 96.3696 525.594 76.1813 520.368C55.8785 515.111 43.8939 506.724 41.0869 495.596Z" stroke="#464667" stroke-width="2.8023"/>
<path opacity="0.310345" d="M31.352 462.839C29.4679 451.488 36.9956 438.505 53.303 424.628C69.5199 410.829 94.0166 396.5 125.025 382.493C187.022 354.489 274.752 327.903 373.512 309.405C472.271 290.907 563.271 284.015 630.545 287.806C664.193 289.701 691.826 294.266 711.508 301.342C731.3 308.457 742.553 317.921 744.438 329.272C746.322 340.623 738.794 353.605 722.487 367.482C706.27 381.282 681.773 395.611 650.764 409.617C588.768 437.621 501.038 464.207 402.278 482.706C303.518 501.204 212.519 508.096 145.245 504.305C111.596 502.409 83.9636 497.845 64.2817 490.769C44.4899 483.654 33.2361 474.189 31.352 462.839Z" stroke="#464667" stroke-width="2.8023"/>
<path opacity="0.344828" d="M24.3296 429.575C23.3837 418.09 31.9498 405.853 49.3324 393.54C66.6194 381.294 92.1981 369.288 124.238 358.206C188.295 336.048 277.872 317.686 377.774 308.402C477.675 299.117 568.893 300.677 635.6 310.681C668.964 315.685 696.117 322.791 715.143 331.662C734.274 340.581 744.71 351.052 745.656 362.537C746.602 374.022 738.036 386.258 720.654 398.572C703.367 410.817 677.788 422.823 645.748 433.906C581.691 456.063 492.114 474.425 392.212 483.71C292.311 492.994 201.093 491.435 134.386 481.43C101.022 476.426 73.8692 469.321 54.8431 460.45C35.7118 451.53 25.2755 441.06 24.3296 429.575Z" stroke="#464667" stroke-width="2.8023"/>
<path opacity="0.37931" d="M20.05 396.056C20.05 384.526 29.5881 373.129 47.9143 362.472C66.1401 351.874 92.6064 342.281 125.433 334.207C191.065 318.065 281.807 308.066 382.09 308.066C482.373 308.066 573.116 318.065 638.748 334.207C671.574 342.281 698.041 351.873 716.266 362.472C734.593 373.129 744.131 384.526 744.131 396.055C744.131 407.585 734.593 418.982 716.266 429.639C698.041 440.237 671.574 449.83 638.748 457.904C573.116 474.046 482.373 484.045 382.09 484.045C281.807 484.045 191.065 474.046 125.433 457.904C92.6064 449.83 66.1401 440.237 47.9143 429.639C29.5881 418.982 20.05 407.585 20.05 396.056Z" stroke="#464667" stroke-width="2.8023"/>
<path opacity="0.413793" d="M18.5251 362.537C19.471 351.052 29.9072 340.581 49.0385 331.661C68.0646 322.791 95.2174 315.685 128.582 310.681C195.288 300.677 286.506 299.117 386.408 308.402C486.309 317.686 575.886 336.048 639.944 358.206C671.983 369.288 697.562 381.294 714.849 393.54C732.232 405.853 740.798 418.09 739.852 429.575C738.906 441.06 728.47 451.53 709.338 460.45C690.312 469.321 663.159 476.426 629.795 481.43C563.089 491.435 471.871 492.994 371.969 483.71C272.068 474.425 182.491 456.063 118.433 433.905C86.3935 422.823 60.8148 410.817 43.5278 398.571C26.1453 386.258 17.5792 374.022 18.5251 362.537Z" stroke="#464667" stroke-width="2.8023"/>
<path opacity="0.448276" d="M19.7433 329.272C21.6274 317.921 32.8811 308.456 52.673 301.341C72.3549 294.266 99.9877 289.701 133.636 287.805C200.91 284.014 291.909 290.906 390.669 309.405C489.429 327.903 577.159 354.489 639.156 382.493C670.164 396.5 694.661 410.828 710.878 424.628C727.185 438.505 734.713 451.487 732.829 462.838C730.945 474.189 719.691 483.654 699.899 490.769C680.217 497.844 652.584 502.409 618.936 504.305C551.662 508.095 460.663 501.204 361.903 482.705C263.143 464.207 175.413 437.621 113.416 409.617C82.4079 395.61 57.9112 381.282 41.6943 367.482C25.3869 353.605 17.8592 340.623 19.7433 329.272Z" stroke="#464667" stroke-width="2.8023"/>
<path opacity="0.482759" d="M23.6761 296.515C26.4832 285.387 38.4677 277 58.7705 271.744C78.9588 266.517 106.862 264.528 140.538 265.755C207.868 268.207 297.956 283.497 394.823 311.069C491.69 338.641 576.906 373.248 636.369 406.886C666.111 423.71 689.34 440.253 704.363 455.502C719.472 470.838 725.903 484.467 723.096 495.595C720.289 506.724 708.304 515.111 688.002 520.367C667.813 525.594 639.91 527.582 606.234 526.356C538.904 523.904 448.816 508.613 351.949 481.041C255.082 453.47 169.866 418.862 110.403 385.225C80.661 368.4 57.4324 351.857 42.4089 336.608C27.3003 321.273 20.8691 307.644 23.6761 296.515Z" stroke="#464667" stroke-width="2.8023"/>
<path opacity="0.517241" d="M30.2675 264.516C33.9748 253.696 46.5979 246.449 67.2581 243.092C87.7994 239.754 115.76 240.357 149.208 244.696C216.082 253.373 304.574 276.947 398.811 313.382C493.047 349.817 575.101 392.183 631.579 431.199C659.828 450.713 681.611 469.344 695.327 485.927C709.123 502.606 714.407 516.776 710.7 527.596C706.993 538.416 694.37 545.663 673.71 549.02C653.168 552.358 625.207 551.755 591.759 547.416C524.886 538.739 436.394 515.166 342.157 478.73C247.92 442.295 165.867 399.929 109.389 360.914C81.1399 341.399 59.3562 322.768 45.6404 306.185C31.8451 289.506 26.5602 275.336 30.2675 264.516Z" stroke="#464667" stroke-width="2.8023"/>
<path opacity="0.551724" d="M39.4484 233.515C44.0261 223.087 57.1909 217.035 78.0523 215.603C98.7906 214.18 126.597 217.369 159.562 224.789C225.471 239.624 311.693 271.301 402.583 316.323C493.472 361.345 571.738 411.147 624.802 455.244C651.343 477.3 671.516 497.878 683.82 515.668C696.197 533.565 700.295 548.168 695.717 558.596C691.139 569.024 677.974 575.076 657.113 576.508C636.375 577.931 608.568 574.742 575.603 567.322C509.694 552.487 423.472 520.81 332.582 475.788C241.693 430.766 163.427 380.964 110.363 336.867C83.8225 314.811 63.6494 294.233 51.3455 276.443C38.9686 258.546 34.8707 243.943 39.4484 233.515Z" stroke="#464667" stroke-width="2.8023"/>
<path opacity="0.586207" d="M51.1257 203.752C56.537 193.795 70.1429 188.983 91.0475 189.488C111.825 189.99 139.265 195.741 171.497 206.186C235.94 227.067 319.236 266.607 406.087 319.873C492.937 373.139 566.821 429.998 616.066 478.842C640.696 503.271 659.105 525.64 669.904 544.503C680.768 563.482 683.647 578.405 678.236 588.361C672.825 598.318 659.219 603.13 638.314 602.625C617.536 602.123 590.096 596.371 557.864 585.927C493.422 565.046 410.125 525.506 323.275 472.24C236.424 418.974 162.541 362.115 113.296 313.271C88.6651 288.841 70.2561 266.473 59.458 247.61C48.5939 228.631 45.7143 213.708 51.1257 203.752Z" stroke="#464667" stroke-width="2.8023"/>
<path opacity="0.62069" d="M65.1892 175.449C71.3911 166.04 85.3342 162.502 106.124 164.941C126.782 167.365 153.648 175.636 184.901 189.025C247.387 215.794 327.123 262.896 409.274 324.001C491.425 385.106 560.363 448.59 605.415 501.809C627.948 528.427 644.453 552.415 653.663 572.208C662.931 592.126 664.57 607.254 658.368 616.663C652.166 626.072 638.223 629.609 617.434 627.17C596.775 624.746 569.91 616.476 538.656 603.087C476.171 576.318 396.434 529.215 314.283 468.11C232.133 407.006 163.194 343.521 118.143 290.303C95.6096 263.685 79.1049 239.696 69.8948 219.903C60.6266 199.986 58.9873 184.857 65.1892 175.449Z" stroke="#464667" stroke-width="2.8023"/>
<path opacity="0.655172" d="M81.5106 148.823C84.9765 144.436 90.2305 141.674 97.2377 140.558C104.256 139.44 112.952 139.988 123.144 142.152C143.528 146.48 169.614 157.207 199.65 173.439C259.703 205.892 335.273 260.199 412.099 328.677C488.925 397.156 552.393 466.783 592.908 523.971C613.172 552.575 627.647 578.002 635.198 598.574C638.974 608.86 640.993 617.862 641.175 625.399C641.357 632.923 639.709 638.899 636.243 643.287C632.777 647.675 627.523 650.436 620.516 651.552C613.497 652.671 604.801 652.122 594.609 649.958C574.226 645.63 548.14 634.903 518.104 618.671C458.05 586.218 382.48 531.912 305.655 463.433C228.829 394.954 165.36 325.327 124.846 268.139C104.582 239.535 90.1071 214.109 82.5554 193.537C78.7794 183.25 76.761 174.248 76.5789 166.711C76.3972 159.187 78.0446 153.211 81.5106 148.823Z" stroke="#464667" stroke-width="2.8023"/>
<path opacity="0.689655" d="M99.9441 124.08C103.752 120.035 109.208 117.771 116.28 117.307C123.364 116.843 131.983 118.194 141.959 121.294C161.912 127.493 187.02 140.595 215.611 159.547C272.775 197.438 343.603 258.535 414.518 333.867C485.434 409.199 542.95 484.438 578.619 545.162C596.46 575.533 608.794 602.205 614.63 623.4C617.548 633.998 618.82 643.153 618.383 650.678C617.946 658.191 615.815 663.987 612.007 668.032C608.199 672.077 602.743 674.341 595.671 674.804C588.587 675.268 579.969 673.917 569.992 670.817C550.04 664.618 524.932 651.516 496.34 632.564C439.177 594.674 368.349 533.576 297.433 458.244C226.517 382.912 169.001 307.673 133.332 246.95C115.492 216.578 103.157 189.906 97.3217 168.712C94.4037 158.114 93.1316 148.958 93.5685 141.433C94.0048 133.921 96.1361 128.125 99.9441 124.08Z" stroke="#464667" stroke-width="2.8023"/>
<path opacity="0.724138" d="M120.327 101.404C124.447 97.7312 130.063 95.9806 137.147 96.1737C144.242 96.3671 152.717 98.5114 162.402 102.523C181.772 110.547 205.711 125.925 232.639 147.452C286.478 190.492 352.025 257.916 416.49 339.528C480.956 421.14 532.081 501.418 562.633 565.215C577.915 597.124 588.014 624.838 592.089 646.494C594.127 657.323 594.643 666.562 593.59 674.017C592.539 681.461 589.941 687.033 585.821 690.705C581.701 694.378 576.084 696.128 569.001 695.935C561.906 695.742 553.43 693.598 543.745 689.586C524.376 681.562 500.437 666.184 473.508 644.657C419.67 601.617 354.123 534.193 289.657 452.581C225.191 370.969 174.066 290.691 143.514 226.894C128.233 194.985 118.133 167.271 114.058 145.615C112.021 134.786 111.505 125.547 112.557 118.092C113.608 110.648 116.207 105.076 120.327 101.404Z" stroke="#464667" stroke-width="2.8023"/>
<path opacity="0.758621" d="M142.482 80.9718C146.882 77.699 152.616 76.4745 159.657 77.3227C166.709 78.1723 174.977 81.0931 184.297 85.9871C202.936 95.7739 225.523 113.311 250.584 137.25C300.688 185.112 360.454 258.349 417.98 345.62C475.505 432.891 519.849 517.599 545.052 583.983C557.657 617.186 565.445 645.731 567.728 667.684C568.869 678.661 568.625 687.913 566.965 695.243C565.307 702.562 562.262 707.867 557.862 711.14C553.462 714.413 547.728 715.637 540.687 714.789C533.635 713.94 525.367 711.019 516.047 706.125C497.408 696.338 474.821 678.801 449.76 654.862C399.656 607 339.89 533.763 282.365 446.492C224.839 359.221 180.495 274.513 155.292 208.129C142.687 174.926 134.899 146.381 132.616 124.428C131.475 113.451 131.719 104.199 133.379 96.8687C135.037 89.5499 138.082 84.2446 142.482 80.9718Z" stroke="#464667" stroke-width="2.8023"/>
<path opacity="0.793103" d="M166.218 62.9364C170.864 60.0869 176.673 59.3969 183.618 60.8939C190.574 62.393 198.571 66.0685 207.455 71.8073C225.221 83.2833 246.285 102.846 269.286 129.015C315.274 181.335 368.805 259.828 418.951 352.093C469.098 444.359 506.324 532.851 525.985 601.318C535.818 635.563 541.235 664.722 541.708 686.804C541.944 697.846 540.942 707.041 538.687 714.189C536.434 721.327 532.967 726.326 528.321 729.175C523.675 732.025 517.866 732.715 510.921 731.218C503.966 729.719 495.968 726.043 487.084 720.305C469.318 708.829 448.254 689.266 425.253 663.097C379.266 610.777 325.735 532.284 275.588 440.019C225.441 347.753 188.215 259.26 168.555 190.794C158.721 156.549 153.304 127.39 152.832 105.308C152.595 94.2658 153.597 85.0708 155.853 77.9227C158.105 70.7849 161.572 65.7858 166.218 62.9364Z" stroke="#464667" stroke-width="2.8023"/>
<path opacity="0.827586" d="M191.334 47.4359C196.191 45.0302 202.031 44.8793 208.827 47.0137C215.633 49.1511 223.299 53.5532 231.679 60.0932C248.437 73.1713 267.817 94.6107 288.584 122.81C330.105 179.19 376.992 262.342 419.378 358.899C461.765 455.457 491.589 547.061 505.558 617.089C512.544 652.115 515.548 681.665 514.207 703.709C513.537 714.732 511.784 723.8 508.951 730.712C506.121 737.614 502.259 742.27 497.402 744.675C492.545 747.081 486.705 747.232 479.909 745.098C473.103 742.96 465.437 738.558 457.057 732.018C440.299 718.94 420.92 697.501 400.153 669.301C358.632 612.921 311.744 529.77 269.358 433.212C226.972 336.654 197.147 245.05 183.179 175.022C176.192 139.997 173.188 110.446 174.529 88.4025C175.199 77.3792 176.952 68.3115 179.786 61.3994C182.615 54.497 186.478 49.8417 191.334 47.4359Z" stroke="#464667" stroke-width="2.8023"/>
<path opacity="0.862069" d="M217.616 34.5899C222.647 32.6449 228.474 33.0338 235.069 35.7894C241.674 38.5488 248.95 43.6441 256.762 50.9357C272.384 65.5164 289.931 88.6693 308.306 118.684C345.044 178.695 384.932 265.872 419.234 365.988C453.537 466.104 475.733 560.121 483.903 631.177C487.989 666.717 488.558 696.434 485.413 718.271C483.841 729.191 481.35 738.062 477.96 744.686C474.575 751.301 470.347 755.577 465.316 757.522C460.286 759.467 454.459 759.078 447.863 756.323C441.258 753.563 433.983 748.468 426.17 741.177C410.548 726.596 393.001 703.443 374.626 673.428C337.888 613.417 298.001 526.24 263.698 426.124C229.395 326.009 207.199 231.991 199.029 160.935C194.943 125.395 194.375 95.6777 197.519 73.8411C199.092 62.9211 201.582 54.0497 204.972 47.4262C208.357 40.8116 212.585 36.5349 217.616 34.5899Z" stroke="#464667" stroke-width="2.8023"/>
<path opacity="0.896552" d="M244.842 24.4945C250.009 23.0239 255.78 23.9494 262.124 27.3053C268.477 30.6657 275.308 36.4154 282.493 44.403C296.86 60.3753 312.441 85.0656 328.284 116.668C359.958 179.853 392.542 270.392 418.5 373.303C444.459 476.214 458.856 571.93 461.165 643.473C462.32 679.256 460.448 708.915 455.524 730.378C453.061 741.111 449.852 749.719 445.932 756.003C442.017 762.28 437.455 766.146 432.288 767.617C427.121 769.087 421.351 768.162 415.006 764.806C408.653 761.446 401.822 755.696 394.637 747.708C380.27 731.736 364.689 707.046 348.847 675.443C317.172 612.259 284.588 521.719 258.63 418.808C232.672 315.897 218.274 220.181 215.965 148.638C214.81 112.855 216.682 83.1968 221.607 61.7334C224.069 50.9998 227.278 42.3925 231.198 36.1079C235.113 29.8317 239.675 25.9652 244.842 24.4945Z" stroke="#464667" stroke-width="2.8023"/>
<path opacity="0.931035" d="M272.781 17.2282C278.045 16.2421 283.716 17.6972 289.762 21.6278C295.815 25.5636 302.148 31.9241 308.65 40.5468C321.653 57.7891 335.149 83.8286 348.339 116.778C374.709 182.655 399.741 275.868 417.157 380.791C434.573 485.714 441.063 582.399 437.493 653.885C435.708 689.639 431.409 719.012 424.742 739.938C421.408 750.403 417.505 758.681 413.084 764.579C408.669 770.469 403.809 773.896 398.544 774.883C393.279 775.869 387.608 774.414 381.563 770.483C375.51 766.547 369.177 760.187 362.674 751.564C349.672 734.322 336.175 708.282 322.986 675.333C296.615 609.455 271.584 516.243 254.168 411.32C236.752 306.397 230.262 209.712 233.831 138.226C235.617 102.472 239.915 73.0992 246.582 52.1727C249.916 41.7075 253.819 33.4297 258.24 27.5321C262.656 21.642 267.516 18.2143 272.781 17.2282Z" stroke="#464667" stroke-width="2.8023"/>
<path opacity="0.965517" d="M301.201 12.846C306.524 12.3513 312.053 14.325 317.753 18.8005C323.461 23.2817 329.248 30.2045 335.018 39.3966C346.557 57.7775 357.865 84.9679 368.301 119.013C389.167 187.082 406.455 282.257 415.196 388.394C423.938 494.531 422.47 591.449 413.049 662.333C408.337 697.786 401.645 726.649 393.286 746.879C389.106 756.996 384.538 764.881 379.65 770.347C374.769 775.806 369.646 778.77 364.323 779.265C358.999 779.759 353.47 777.786 347.77 773.31C342.063 768.829 336.275 761.906 330.505 752.714C318.967 734.333 307.658 707.143 297.222 673.097C276.357 605.029 259.068 509.853 250.327 403.717C241.585 297.58 243.053 200.661 252.474 129.778C257.186 94.3247 263.879 65.4614 272.237 45.2313C276.417 35.1144 280.985 27.2293 285.873 21.7634C290.755 16.3044 295.877 13.3408 301.201 12.846Z" stroke="#464667" stroke-width="2.8023"/>
</g>
</svg>
