<svg width="518" height="908" viewBox="0 0 518 908" fill="none" xmlns="http://www.w3.org/2000/svg">
<g opacity="0.7">
<path opacity="0.0526316" d="M423.532 733.145C398.126 759.374 316.925 803.265 195.371 768.998C43.4286 726.163 -15.3362 612.619 -150.947 553.746C-251.038 510.292 -519.987 445.067 -674.637 517.142" stroke="url(#paint0_linear_0_18653)" stroke-width="2.81501"/>
<path opacity="0.105263" d="M448.59 678.159C426.857 706.305 352.013 756.542 226.509 732.321C69.6282 702.045 -4.10945 593.891 -146.908 546.339C-252.304 511.243 -528.566 468.189 -672.66 552.414" stroke="url(#paint1_linear_0_18653)" stroke-width="2.81501"/>
<path opacity="0.157895" d="M467.522 622.431C449.699 652.186 382.032 708.219 253.953 694.311C93.8535 676.926 5.9509 575.345 -142.471 539.636C-252.017 513.281 -532.565 492.872 -664.524 588.323" stroke="url(#paint2_linear_0_18653)" stroke-width="2.81501"/>
<path opacity="0.210526" d="M480.26 566.46C466.542 597.497 406.794 658.711 277.543 655.268C115.979 650.965 14.8747 557.07 -137.544 533.596C-250.04 516.271 -531.801 518.73 -650.179 624.361" stroke="url(#paint3_linear_0_18653)" stroke-width="2.81501"/>
<path opacity="0.263158" d="M486.806 510.753C477.344 542.734 426.169 608.459 297.162 615.519C135.904 624.344 22.705 539.164 -132.041 528.182C-246.255 520.076 -526.14 545.376 -629.641 660.031" stroke="url(#paint4_linear_0_18653)" stroke-width="2.81501"/>
<path opacity="0.315789" d="M487.227 455.812C482.125 488.384 440.083 557.9 312.734 575.386C153.548 597.243 29.4955 521.711 -125.882 523.341C-240.562 524.544 -515.506 572.408 -602.996 694.83" stroke="url(#paint5_linear_0_18653)" stroke-width="2.81501"/>
<path opacity="0.368421" d="M481.663 402.126C480.976 434.933 448.529 507.479 324.233 535.198C168.863 569.847 35.3157 504.792 -118.991 519.016C-232.881 529.515 -499.871 599.417 -570.391 728.265" stroke="url(#paint6_linear_0_18653)" stroke-width="2.81501"/>
<path opacity="0.421053" d="M470.312 350.177C474.049 382.861 451.552 457.641 331.671 495.29C181.819 542.352 40.2401 488.486 -111.305 515.148C-223.157 534.827 -479.269 626.003 -532.046 759.865" stroke="url(#paint7_linear_0_18653)" stroke-width="2.81501"/>
<path opacity="0.473684" d="M453.445 300.421C461.563 332.623 449.263 408.818 335.11 455.985C192.418 514.944 44.359 472.856 -102.765 511.665C-211.353 540.308 -453.78 651.759 -488.236 789.169" stroke="url(#paint8_linear_0_18653)" stroke-width="2.81501"/>
<path opacity="0.526316" d="M431.379 253.296C443.791 284.663 441.821 361.438 334.647 417.606C200.679 487.816 47.7618 457.969 -93.3282 508.498C-197.463 545.793 -423.55 676.297 -439.307 815.749" stroke="url(#paint9_linear_0_18653)" stroke-width="2.81501"/>
<path opacity="0.578947" d="M404.507 209.21C421.076 239.398 429.459 315.912 330.438 380.466C206.662 461.158 50.5616 443.877 -82.949 505.574C-181.49 551.111 -388.758 699.239 -385.645 839.205" stroke="url(#paint10_linear_0_18653)" stroke-width="2.81501"/>
<path opacity="0.631579" d="M373.257 168.529C393.802 197.208 412.446 272.623 322.663 344.855C210.434 435.145 52.8611 430.621 -71.6072 502.809C-163.474 556.089 -349.654 720.217 -327.703 859.164" stroke="url(#paint11_linear_0_18653)" stroke-width="2.81501"/>
<path opacity="0.684211" d="M338.117 131.602C362.412 158.457 391.113 231.947 311.552 311.065C212.1 409.963 54.781 418.245 -59.2814 500.134C-143.468 560.574 -306.519 738.905 -265.972 875.31" stroke="url(#paint12_linear_0_18653)" stroke-width="2.81501"/>
<path opacity="0.736842" d="M299.609 98.7129C327.389 123.45 365.832 194.21 297.364 279.348C211.779 385.771 56.4373 406.768 -45.9695 497.461C-121.553 564.398 -259.689 754.977 -200.99 887.346" stroke="url(#paint13_linear_0_18653)" stroke-width="2.81501"/>
<path opacity="0.789474" d="M258.301 70.1196C289.261 92.4681 337.025 159.722 280.401 249.947C209.62 362.729 57.9579 396.212 -31.6713 494.714C-97.8243 567.415 -209.532 768.155 -133.324 895.038" stroke="url(#paint14_linear_0_18653)" stroke-width="2.81501"/>
<path opacity="0.842105" d="M214.782 46.0228C248.582 65.7376 305.144 128.748 260.984 223.073C205.783 340.978 59.4618 386.579 -16.4078 491.811C-72.4052 569.481 -156.46 778.181 -63.5783 898.188" stroke="url(#paint15_linear_0_18653)" stroke-width="2.81501"/>
<path opacity="0.894737" d="M169.673 26.5782C205.944 43.4433 270.683 101.521 239.471 198.911C200.455 320.648 61.0779 377.867 -0.200854 488.677C-45.4292 570.463 -100.911 784.839 7.62749 896.654" stroke="url(#paint16_linear_0_18653)" stroke-width="2.81501"/>
<path opacity="0.947368" d="M123.605 11.8874C161.949 25.7182 234.158 78.2266 216.235 177.614C193.831 301.849 62.9252 370.06 16.9087 485.234C-17.0549 570.24 -43.3558 787.942 79.6502 890.34" stroke="url(#paint17_linear_0_18653)" stroke-width="2.81501"/>
<path d="M77.2322 2C117.23 12.6447 196.115 59.0085 191.679 159.306C186.133 284.677 65.1322 363.133 34.882 481.408C12.5552 568.704 15.7236 787.346 151.849 879.206" stroke="url(#paint18_linear_0_18653)" stroke-width="2.81501"/>
</g>
<defs>
<linearGradient id="paint0_linear_0_18653" x1="413.972" y1="755.977" x2="-597.335" y2="332.525" gradientUnits="userSpaceOnUse">
<stop stop-color="#464667"/>
<stop offset="1" stop-color="#464667" stop-opacity="0"/>
</linearGradient>
<linearGradient id="paint1_linear_0_18653" x1="442.158" y1="701.641" x2="-632.875" y2="407.17" gradientUnits="userSpaceOnUse">
<stop stop-color="#464667"/>
<stop offset="1" stop-color="#464667" stop-opacity="0"/>
</linearGradient>
<linearGradient id="paint2_linear_0_18653" x1="464.288" y1="646.307" x2="-651.901" y2="495.124" gradientUnits="userSpaceOnUse">
<stop stop-color="#464667"/>
<stop offset="1" stop-color="#464667" stop-opacity="0"/>
</linearGradient>
<linearGradient id="paint3_linear_0_18653" x1="480.26" y1="590.466" x2="-650.179" y2="590.466" gradientUnits="userSpaceOnUse">
<stop stop-color="#464667"/>
<stop offset="1" stop-color="#464667" stop-opacity="0"/>
</linearGradient>
<linearGradient id="paint4_linear_0_18653" x1="490.04" y1="534.629" x2="-626.149" y2="685.812" gradientUnits="userSpaceOnUse">
<stop stop-color="#464667"/>
<stop offset="1" stop-color="#464667" stop-opacity="0"/>
</linearGradient>
<linearGradient id="paint5_linear_0_18653" x1="493.659" y1="479.294" x2="-581.374" y2="773.765" gradientUnits="userSpaceOnUse">
<stop stop-color="#464667"/>
<stop offset="1" stop-color="#464667" stop-opacity="0"/>
</linearGradient>
<linearGradient id="paint6_linear_0_18653" x1="491.223" y1="424.958" x2="-520.084" y2="848.41" gradientUnits="userSpaceOnUse">
<stop stop-color="#464667"/>
<stop offset="1" stop-color="#464667" stop-opacity="0"/>
</linearGradient>
<linearGradient id="paint7_linear_0_18653" x1="482.896" y1="372.109" x2="-448.056" y2="906.25" gradientUnits="userSpaceOnUse">
<stop stop-color="#464667"/>
<stop offset="1" stop-color="#464667" stop-opacity="0"/>
</linearGradient>
<linearGradient id="paint8_linear_0_18653" x1="468.913" y1="321.212" x2="-371.294" y2="946.344" gradientUnits="userSpaceOnUse">
<stop stop-color="#464667"/>
<stop offset="1" stop-color="#464667" stop-opacity="0"/>
</linearGradient>
<linearGradient id="paint9_linear_0_18653" x1="449.563" y1="272.719" x2="-295.018" y2="969.857" gradientUnits="userSpaceOnUse">
<stop stop-color="#464667"/>
<stop offset="1" stop-color="#464667" stop-opacity="0"/>
</linearGradient>
<linearGradient id="paint10_linear_0_18653" x1="425.208" y1="227.051" x2="-223.092" y2="979.296" gradientUnits="userSpaceOnUse">
<stop stop-color="#464667"/>
<stop offset="1" stop-color="#464667" stop-opacity="0"/>
</linearGradient>
<linearGradient id="paint11_linear_0_18653" x1="396.248" y1="184.593" x2="-157.948" y2="977.773" gradientUnits="userSpaceOnUse">
<stop stop-color="#464667"/>
<stop offset="1" stop-color="#464667" stop-opacity="0"/>
</linearGradient>
<linearGradient id="paint12_linear_0_18653" x1="363.146" y1="145.713" x2="-100.719" y2="968.478" gradientUnits="userSpaceOnUse">
<stop stop-color="#464667"/>
<stop offset="1" stop-color="#464667" stop-opacity="0"/>
</linearGradient>
<linearGradient id="paint13_linear_0_18653" x1="326.402" y1="110.716" x2="-51.5389" y2="954.303" gradientUnits="userSpaceOnUse">
<stop stop-color="#464667"/>
<stop offset="1" stop-color="#464667" stop-opacity="0"/>
</linearGradient>
<linearGradient id="paint14_linear_0_18653" x1="286.564" y1="79.8841" x2="-9.80826" y2="937.711" gradientUnits="userSpaceOnUse">
<stop stop-color="#464667"/>
<stop offset="1" stop-color="#464667" stop-opacity="0"/>
</linearGradient>
<linearGradient id="paint15_linear_0_18653" x1="244.205" y1="53.4413" x2="25.5501" y2="920.66" gradientUnits="userSpaceOnUse">
<stop stop-color="#464667"/>
<stop offset="1" stop-color="#464667" stop-opacity="0"/>
</linearGradient>
<linearGradient id="paint16_linear_0_18653" x1="199.934" y1="31.5695" x2="55.9319" y2="904.621" gradientUnits="userSpaceOnUse">
<stop stop-color="#464667"/>
<stop offset="1" stop-color="#464667" stop-opacity="0"/>
</linearGradient>
<linearGradient id="paint17_linear_0_18653" x1="154.373" y1="14.3969" x2="82.9097" y2="890.606" gradientUnits="userSpaceOnUse">
<stop stop-color="#464667"/>
<stop offset="1" stop-color="#464667" stop-opacity="0"/>
</linearGradient>
<linearGradient id="paint18_linear_0_18653" x1="108.17" y1="2" x2="108.17" y2="879.206" gradientUnits="userSpaceOnUse">
<stop stop-color="#464667"/>
<stop offset="1" stop-color="#464667" stop-opacity="0"/>
</linearGradient>
</defs>
</svg>
